<?xml version="1.0" standalone="no"?>
<!DOCTYPE svg PUBLIC "-//W3C//DTD SVG 20010904//EN"
 "http://www.w3.org/TR/2001/REC-SVG-20010904/DTD/svg10.dtd">
<svg version="1.0" xmlns="http://www.w3.org/2000/svg"
 width="600.000000pt" height="600.000000pt" viewBox="0 0 600.000000 600.000000"
 preserveAspectRatio="xMidYMid meet">
<g transform="translate(0.000000,600.000000) scale(0.100000,-0.100000)"
fill="#000000" stroke="none">
<path d="M2768 5308 c-9 -7 -62 -78 -118 -158 -56 -80 -112 -158 -123 -175
-12 -16 -47 -66 -77 -111 -30 -45 -108 -157 -172 -249 -131 -186 -127 -175
-108 -320 5 -38 16 -142 24 -230 9 -88 20 -200 25 -250 6 -49 13 -121 16 -160
4 -38 13 -108 20 -155 17 -99 48 -461 43 -487 -2 -11 -42 55 -94 157 -164 315
-217 411 -239 432 -19 18 -413 204 -545 257 -25 10 -61 26 -82 34 -34 16 -37
15 -61 -3 -20 -16 -25 -31 -31 -92 -4 -40 -11 -89 -16 -108 -5 -19 -20 -125
-35 -235 -14 -110 -32 -233 -40 -273 -26 -125 -21 -165 30 -267 25 -50 56
-108 68 -130 25 -44 92 -170 229 -430 50 -93 150 -283 224 -421 74 -139 134
-254 134 -257 0 -4 14 -30 32 -59 17 -29 62 -114 101 -188 104 -202 133 -254
157 -275 21 -19 290 -111 436 -148 l82 -21 -5 -38 c-4 -23 -1 -44 7 -53 17
-20 417 -215 441 -215 21 0 228 86 243 101 6 5 15 9 22 9 6 0 33 10 60 22 27
12 51 22 54 23 7 1 143 58 290 122 69 30 134 58 145 63 123 51 543 228 588
248 52 23 62 32 97 93 22 37 40 69 40 72 0 2 45 91 101 197 120 231 120 222
-5 281 -46 21 -89 39 -95 39 -12 0 -88 28 -262 96 -102 40 -109 41 -166 13
-24 -12 -46 -19 -48 -17 -5 5 21 42 100 141 54 68 177 230 335 441 30 40 90
120 134 177 43 57 83 115 88 129 6 16 7 163 2 402 -6 347 -8 379 -25 394 -22
20 -53 14 -256 -55 -79 -27 -143 -44 -143 -38 0 5 9 28 19 51 124 261 181 395
181 419 0 16 -34 131 -75 254 -41 124 -87 263 -101 310 -19 64 -31 87 -49 95
-25 11 -11 16 -275 -100 -74 -33 -175 -76 -225 -97 -49 -21 -100 -47 -113 -59
-13 -11 -71 -117 -130 -234 -127 -252 -116 -261 -127 102 -5 183 -10 247 -21
269 -17 31 -615 652 -645 667 -24 13 -42 12 -61 -2z m203 -175 c466 -475 489
-500 489 -538 0 -146 23 -632 30 -639 6 -6 18 10 30 40 12 27 71 148 132 270
l110 221 59 27 c32 15 76 33 96 40 21 8 73 30 116 50 43 20 81 36 83 36 6 0
112 48 179 81 56 27 71 25 80 -13 4 -18 9 -35 10 -38 1 -3 4 -12 8 -20 3 -8
16 -49 27 -90 12 -41 26 -80 31 -86 5 -6 7 -19 3 -28 -4 -9 -1 -16 6 -16 7 0
10 -7 6 -15 -3 -8 -2 -15 2 -15 5 0 14 -24 21 -52 8 -29 18 -64 24 -78 6 -14
11 -27 12 -30 1 -3 7 -18 14 -35 7 -16 15 -53 18 -82 5 -46 1 -61 -30 -125
-19 -40 -52 -109 -72 -153 -20 -44 -47 -102 -60 -130 -39 -83 -56 -128 -50
-133 4 -4 139 36 185 55 8 3 17 7 20 8 3 1 12 4 20 7 36 14 120 38 132 38 7 0
25 7 40 14 15 8 30 11 32 7 4 -6 11 -218 21 -650 3 -121 1 -126 -98 -254 -34
-44 -87 -113 -117 -153 -56 -75 -171 -226 -193 -254 -7 -8 -37 -49 -67 -90
-30 -41 -77 -103 -105 -136 -107 -131 -145 -194 -116 -194 6 0 41 16 80 35 38
19 76 35 83 35 8 0 43 -12 79 -26 79 -32 205 -79 282 -104 69 -23 187 -79 187
-89 0 -4 -4 -11 -9 -16 -5 -6 -43 -75 -84 -155 -142 -280 -183 -350 -200 -350
-3 0 -22 -8 -43 -17 -22 -9 -42 -16 -46 -15 -5 1 -8 -2 -8 -7 0 -5 -12 -12
-27 -16 -15 -3 -50 -17 -78 -30 -56 -27 -160 -70 -280 -118 -44 -17 -82 -34
-85 -38 -3 -4 -39 -19 -80 -33 -41 -15 -79 -31 -85 -35 -5 -4 -37 -18 -70 -31
-33 -13 -65 -27 -70 -31 -6 -4 -44 -20 -85 -35 -41 -14 -80 -30 -86 -35 -6 -5
-42 -20 -80 -35 -38 -14 -74 -30 -80 -35 -6 -5 -35 -17 -65 -28 -30 -10 -72
-28 -94 -40 -22 -11 -49 -21 -61 -21 -21 0 -125 48 -150 69 -7 6 -15 7 -18 4
-3 -4 -6 -1 -6 5 0 7 -5 12 -11 12 -5 0 -47 18 -92 39 -45 21 -99 46 -119 54
-41 17 -46 33 -23 76 19 38 9 46 -90 66 -44 9 -98 25 -120 35 -22 9 -64 23
-92 30 -29 6 -53 16 -53 22 0 5 -5 6 -10 3 -6 -4 -18 -1 -26 6 -8 6 -17 9 -21
6 -3 -4 -11 -3 -17 2 -6 4 -32 14 -57 20 -44 12 -49 17 -93 95 -25 46 -46 86
-46 90 0 5 -141 273 -220 417 -5 9 -34 66 -65 125 -32 60 -106 200 -166 310
-60 111 -109 204 -109 208 0 3 -21 43 -46 88 -25 46 -76 139 -111 208 -36 69
-69 130 -73 135 -4 6 -26 45 -49 89 -45 87 -51 135 -30 237 6 30 13 70 15 89
1 19 5 46 9 60 3 14 17 108 31 210 14 102 27 196 30 210 2 14 7 51 10 83 4 31
10 60 15 62 8 5 60 -14 69 -26 3 -3 30 -14 60 -24 30 -10 75 -28 100 -41 89
-45 373 -174 385 -174 4 0 18 -9 32 -20 27 -21 40 -42 98 -155 19 -38 51 -97
70 -130 19 -33 46 -85 61 -115 14 -30 29 -57 34 -60 4 -3 13 -21 19 -40 7 -19
23 -53 36 -75 13 -22 35 -60 49 -85 14 -25 34 -56 45 -70 l20 -25 -11 40 c-10
38 -19 110 -53 435 -9 80 -18 161 -20 180 -3 19 -14 123 -25 230 -33 321 -38
369 -56 520 -25 215 -40 167 136 415 47 66 112 158 144 205 32 47 68 101 82
120 13 19 55 80 94 135 39 55 84 119 100 143 17 23 34 42 38 42 4 0 82 -75
173 -167z"/>
<path d="M2802 5220 c0 -14 2 -19 5 -12 2 6 2 18 0 25 -3 6 -5 1 -5 -13z"/>
<path d="M2800 4940 c0 -90 3 -161 6 -158 7 7 6 310 -1 317 -3 2 -5 -69 -5
-159z"/>
<path d="M2811 4563 c0 -84 2 -153 7 -153 4 0 6 57 4 127 -4 188 -9 200 -11
26z"/>
<path d="M4233 4458 c-55 -134 -117 -281 -137 -328 -20 -47 -29 -76 -21 -66 8
11 24 43 34 70 10 28 31 77 45 108 14 31 26 59 26 62 0 3 11 29 25 58 13 29
33 76 44 104 11 28 29 73 41 100 39 88 56 134 48 134 -2 0 -49 -109 -105 -242z"/>
<path d="M3170 4404 c-135 -113 -269 -225 -297 -247 l-53 -42 5 -60 c11 -121
55 -733 55 -764 0 -17 3 -31 8 -31 4 0 4 43 1 95 -4 52 -10 134 -14 182 -3 49
-8 113 -10 143 -3 30 -7 91 -10 135 -3 44 -9 127 -14 184 l-10 105 42 36 c23
21 87 75 143 121 310 257 416 349 402 349 -2 0 -113 -93 -248 -206z"/>
<path d="M3773 4437 c10 -28 259 -399 264 -394 4 4 -249 393 -265 407 -3 3 -2
-3 1 -13z"/>
<path d="M2231 4396 c11 -11 563 -285 567 -282 4 5 -552 286 -564 286 -4 0 -5
-2 -3 -4z"/>
<path d="M2812 4380 c0 -14 2 -19 5 -12 2 6 2 18 0 25 -3 6 -5 1 -5 -13z"/>
<path d="M2822 4265 c0 -16 2 -22 5 -12 2 9 2 23 0 30 -3 6 -5 -1 -5 -18z"/>
<path d="M2823 4185 c0 -27 2 -38 4 -22 2 15 2 37 0 50 -2 12 -4 0 -4 -28z"/>
<path d="M4415 4080 c-85 -13 -137 -20 -227 -31 -48 -7 -85 -16 -82 -20 3 -5
9 -7 13 -5 6 4 99 18 321 47 76 10 106 20 54 18 -16 -1 -51 -5 -79 -9z"/>
<path d="M4062 4033 c-18 -7 -542 -1058 -541 -1085 1 -22 1 -22 9 2 4 14 64
138 133 275 68 138 133 267 142 289 11 23 30 44 49 53 31 14 31 14 3 8 l-28
-6 36 68 c20 37 40 75 44 83 5 8 39 78 77 154 43 87 75 141 86 144 10 2 18 8
18 13 0 10 -8 10 -28 2z"/>
<path d="M3474 3825 c0 -60 1 -84 3 -52 2 32 2 81 0 110 -2 29 -3 3 -3 -58z"/>
<path d="M1321 3795 c1 -19 18 -51 18 -35 0 8 -4 22 -9 30 -5 8 -9 11 -9 5z"/>
<path d="M4308 3713 c7 -3 16 -2 19 1 4 3 -2 6 -13 5 -11 0 -14 -3 -6 -6z"/>
<path d="M4245 3700 c-17 -8 -16 -8 8 -7 15 1 27 5 27 9 0 10 -9 9 -35 -2z"/>
<path d="M1366 3670 c3 -14 11 -32 16 -40 6 -10 7 -7 2 10 -3 14 -11 32 -16
40 -6 10 -7 7 -2 -10z"/>
<path d="M3480 3627 l5 -52 3 44 c2 24 0 47 -5 52 -4 4 -6 -15 -3 -44z"/>
<path d="M4538 3343 c-118 -186 -224 -356 -237 -378 l-23 -40 24 27 c12 14 43
60 68 102 25 42 77 125 115 184 39 60 95 148 125 196 30 48 70 111 89 139 37
59 64 107 57 107 -2 0 -100 -152 -218 -337z"/>
<path d="M4110 3655 c-19 -7 -28 -14 -20 -14 8 0 29 6 45 14 39 17 21 18 -25
0z"/>
<path d="M3980 3615 c-36 -13 -61 -24 -57 -24 13 -1 147 40 147 45 0 8 -26 2
-90 -21z"/>
<path d="M4310 3595 c-7 -8 -18 -15 -24 -15 -21 0 -258 -81 -278 -94 -15 -11
-221 -279 -288 -376 -8 -12 -51 -69 -95 -127 -44 -58 -84 -112 -90 -121 -10
-16 -126 -177 -142 -197 -4 -5 -48 -64 -98 -130 -49 -66 -93 -124 -97 -130
-19 -23 -165 -221 -188 -253 -15 -21 -26 -30 -28 -21 -1 8 -6 46 -11 84 -8 64
-8 65 -9 20 0 -27 3 -74 6 -103 l7 -53 51 68 c28 38 143 192 254 343 250 338
422 570 598 806 l135 180 146 48 c135 45 183 67 169 81 -3 3 -11 -1 -18 -10z"/>
<path d="M3482 3540 c0 -19 2 -27 5 -17 2 9 2 25 0 35 -3 9 -5 1 -5 -18z"/>
<path d="M1410 3545 c0 -5 5 -17 10 -25 5 -8 10 -10 10 -5 0 6 -5 17 -10 25
-5 8 -10 11 -10 5z"/>
<path d="M1870 3447 c-30 -55 -101 -183 -156 -283 -56 -101 -98 -186 -94 -191
7 -7 138 -250 293 -543 27 -52 76 -142 107 -200 32 -58 110 -206 175 -330 65
-124 121 -229 125 -235 4 -5 41 -75 83 -155 93 -180 131 -244 123 -210 -3 14
-26 210 -51 435 -25 226 -61 546 -80 713 -19 167 -35 316 -35 332 0 16 -9 44
-20 62 -19 32 -29 23 -11 -10 9 -17 12 -37 31 -212 6 -52 14 -129 20 -170 5
-41 12 -102 15 -135 3 -33 8 -67 10 -75 2 -8 6 -53 10 -100 6 -83 8 -99 20
-190 10 -84 14 -115 34 -295 11 -99 23 -207 26 -240 l6 -60 -20 35 c-34 60
-61 121 -61 138 0 12 -3 13 -8 5 -4 -7 -32 36 -69 110 -34 67 -86 167 -116
222 -29 55 -80 150 -112 210 -32 61 -66 124 -75 140 -9 17 -43 80 -75 140 -32
61 -86 162 -120 225 -34 63 -64 120 -66 125 -2 6 -37 70 -78 144 -56 102 -72
138 -64 150 5 9 45 81 88 161 43 80 107 196 142 259 35 63 62 117 61 122 -2 4
-28 -38 -58 -94z"/>
<path d="M3482 3461 c1 -22 5 -38 8 -36 7 4 1 75 -6 75 -3 0 -4 -18 -2 -39z"/>
<path d="M1446 3447 c3 -10 9 -15 12 -12 3 3 0 11 -7 18 -10 9 -11 8 -5 -6z"/>
<path d="M4053 3355 c103 -233 150 -335 153 -332 5 5 -174 409 -187 422 -5 5
10 -35 34 -90z"/>
<path d="M3487 3395 c-4 -8 -2 -17 3 -20 6 -4 10 3 10 14 0 25 -6 27 -13 6z"/>
<path d="M3491 3344 c0 -11 3 -14 6 -6 3 7 2 16 -1 19 -3 4 -6 -2 -5 -13z"/>
<path d="M1492 3315 c6 -14 13 -24 14 -22 6 6 -9 47 -17 47 -5 0 -3 -11 3 -25z"/>
<path d="M3492 3300 c0 -14 2 -19 5 -12 2 6 2 18 0 25 -3 6 -5 1 -5 -13z"/>
<path d="M1520 3245 c0 -5 5 -17 10 -25 5 -8 10 -10 10 -5 0 6 -5 17 -10 25
-5 8 -10 11 -10 5z"/>
<path d="M2891 3178 c-1 -37 3 -69 7 -72 5 -3 6 23 4 57 -5 87 -10 94 -11 15z"/>
<path d="M3503 3140 c0 -41 2 -58 4 -37 2 20 2 54 0 75 -2 20 -4 3 -4 -38z"/>
<path d="M1580 3083 c0 -4 5 -15 10 -23 8 -13 10 -13 10 2 0 9 -4 20 -10 23
-5 3 -10 3 -10 -2z"/>
<path d="M2900 3064 c0 -78 24 -351 32 -364 6 -10 7 -6 4 15 -3 17 -10 107
-17 200 -10 156 -19 222 -19 149z"/>
<path d="M2202 3020 c0 -14 2 -19 5 -12 2 6 2 18 0 25 -3 6 -5 1 -5 -13z"/>
<path d="M1208 3013 c7 -3 16 -2 19 1 4 3 -2 6 -13 5 -11 0 -14 -3 -6 -6z"/>
<path d="M1258 3003 c12 -2 32 -2 45 0 12 2 2 4 -23 4 -25 0 -35 -2 -22 -4z"/>
<path d="M4211 3005 c-1 -5 10 -30 24 -54 l25 -43 -67 -86 c-38 -48 -130 -165
-206 -262 -75 -96 -163 -209 -194 -250 -31 -41 -96 -124 -144 -185 -145 -182
-397 -510 -395 -513 2 -1 16 4 32 12 16 8 187 85 379 171 377 168 389 174 405
206 11 19 10 20 -9 9 -12 -6 -21 -14 -21 -18 0 -8 -52 -36 -165 -87 -44 -20
-93 -42 -108 -50 -16 -8 -33 -13 -38 -9 -5 3 -9 1 -9 -4 0 -5 -19 -17 -42 -27
-24 -10 -71 -30 -105 -46 -34 -15 -64 -25 -67 -21 -3 3 -6 1 -6 -5 0 -6 -30
-23 -67 -38 -38 -14 -83 -35 -101 -46 l-33 -19 12 21 c15 28 98 139 120 162
10 9 25 17 34 17 8 0 15 4 15 10 0 5 -7 7 -16 3 -16 -6 54 90 195 267 71 90
169 216 263 340 23 30 47 60 52 66 6 6 74 92 151 192 77 99 149 183 160 186
11 3 112 8 225 12 113 4 214 11 225 15 12 5 -3 7 -40 4 -33 -2 -144 -7 -247
-10 l-187 -6 -25 48 c-14 26 -25 44 -25 38z"/>
<path d="M1415 2990 c39 -4 93 -7 120 -7 l50 0 -60 7 c-33 4 -87 8 -120 7
l-60 0 70 -7z"/>
<path d="M2212 2940 c0 -14 2 -19 5 -12 2 6 2 18 0 25 -3 6 -5 1 -5 -13z"/>
<path d="M2242 2695 c0 -16 2 -22 5 -12 2 9 2 23 0 30 -3 6 -5 -1 -5 -18z"/>
<path d="M2931 2628 c0 -32 2 -58 7 -58 4 0 6 19 4 43 -5 70 -10 76 -11 15z"/>
<path d="M2252 2620 c0 -14 2 -19 5 -12 2 6 2 18 0 25 -3 6 -5 1 -5 -13z"/>
<path d="M2943 2505 c0 -33 3 -94 7 -135 l7 -75 0 70 c0 39 -3 99 -7 135 l-7
65 0 -60z"/>
<path d="M2261 2534 c0 -11 3 -14 6 -6 3 7 2 16 -1 19 -3 4 -6 -2 -5 -13z"/>
<path d="M2272 2480 c0 -14 2 -19 5 -12 2 6 2 18 0 25 -3 6 -5 1 -5 -13z"/>
<path d="M2282 2410 c0 -14 2 -19 5 -12 2 6 2 18 0 25 -3 6 -5 1 -5 -13z"/>
<path d="M2290 2346 c0 -19 3 -37 8 -40 4 -2 6 13 4 35 -5 48 -12 51 -12 5z"/>
<path d="M2301 2274 c0 -11 3 -14 6 -6 3 7 2 16 -1 19 -3 4 -6 -2 -5 -13z"/>
<path d="M2311 2194 c0 -11 3 -14 6 -6 3 7 2 16 -1 19 -3 4 -6 -2 -5 -13z"/>
<path d="M2322 2125 c0 -16 2 -22 5 -12 2 9 2 23 0 30 -3 6 -5 -1 -5 -18z"/>
<path d="M4060 2090 c-25 -10 -38 -19 -30 -19 17 1 101 37 85 38 -5 0 -30 -9
-55 -19z"/>
<path d="M2332 2070 c0 -14 2 -19 5 -12 2 6 2 18 0 25 -3 6 -5 1 -5 -13z"/>
<path d="M3985 2060 c-19 -8 -19 -9 3 -9 12 -1 22 4 22 9 0 6 -1 10 -2 9 -2 0
-12 -4 -23 -9z"/>
<path d="M3925 2035 c-25 -12 -26 -14 -5 -9 14 4 29 10 35 15 12 12 5 11 -30
-6z"/>
<path d="M3860 2010 c-8 -5 -10 -10 -5 -10 6 0 17 5 25 10 8 5 11 10 5 10 -5
0 -17 -5 -25 -10z"/>
<path d="M2342 1990 c0 -14 2 -19 5 -12 2 6 2 18 0 25 -3 6 -5 1 -5 -13z"/>
<path d="M4206 1954 c-9 -26 -14 -49 -12 -51 2 -2 11 17 20 43 9 26 14 49 12
51 -2 2 -11 -17 -20 -43z"/>
<path d="M3760 1970 c-8 -5 -10 -10 -5 -10 6 0 17 5 25 10 8 5 11 10 5 10 -5
0 -17 -5 -25 -10z"/>
<path d="M2353 1925 c0 -22 2 -30 4 -17 2 12 2 30 0 40 -3 9 -5 -1 -4 -23z"/>
<path d="M3632 1919 c-29 -12 -52 -23 -50 -25 5 -4 94 29 104 39 10 10 6 9
-54 -14z"/>
<path d="M4135 1748 c-26 -79 -52 -151 -57 -160 -5 -10 -5 -18 -1 -18 9 0 116
311 109 317 -2 2 -25 -61 -51 -139z"/>
<path d="M2361 1834 c0 -11 3 -14 6 -6 3 7 2 16 -1 19 -3 4 -6 -2 -5 -13z"/>
<path d="M4670 1791 c-36 -16 -175 -75 -310 -132 -135 -56 -249 -107 -255
-112 -5 -5 7 -2 28 7 20 8 37 12 37 9 0 -3 6 -1 13 4 6 6 86 42 177 80 91 39
216 92 278 118 61 26 112 49 112 51 0 8 -17 3 -80 -25z"/>
<path d="M2382 1710 c0 -14 2 -19 5 -12 2 6 2 18 0 25 -3 6 -5 1 -5 -13z"/>
<path d="M2392 1640 c0 -14 2 -19 5 -12 2 6 2 18 0 25 -3 6 -5 1 -5 -13z"/>
<path d="M3200 1580 c-9 -6 -10 -10 -3 -10 6 0 15 5 18 10 8 12 4 12 -15 0z"/>
<path d="M3022 1503 c-78 -36 -141 -67 -139 -69 4 -4 106 41 232 101 124 59
55 36 -93 -32z"/>
<path d="M3990 1502 c-47 -21 -334 -146 -637 -277 -304 -131 -551 -240 -549
-242 2 -2 183 73 402 168 220 94 502 216 628 270 126 55 237 99 247 99 10 0
48 -15 86 -34 124 -63 302 -146 310 -146 15 0 -72 46 -235 123 -90 42 -164 77
-165 77 -1 0 -40 -18 -87 -38z"/>
<path d="M2846 1414 c-5 -14 -4 -15 9 -4 17 14 19 20 6 20 -5 0 -12 -7 -15
-16z"/>
<path d="M2816 1344 c-21 -62 -13 -69 9 -9 10 25 15 48 13 51 -3 3 -13 -16
-22 -42z"/>
<path d="M2787 1273 c-4 -3 -7 -11 -7 -17 0 -6 5 -5 12 2 6 6 9 14 7 17 -3 3
-9 2 -12 -2z"/>
<path d="M2740 960 c-9 -6 -10 -10 -3 -10 6 0 15 5 18 10 8 12 4 12 -15 0z"/>
</g>
</svg>
